<svg xmlns="http://www.w3.org/2000/svg" viewBox="-2.055000000000007 66.77799999999999 579.1101429538267 441.44329833984375"><rect height="100%" width="100%" x="-2.055000000000007" y="66.77799999999999" fill="rgba(255, 255, 255, 0)"/> <svg xmlns="http://www.w3.org/2000/svg" xmlns:xlink="http://www.w3.org/1999/xlink" version="1.1" x="67.945" y="136.778" viewBox="1.8999996185302734 0.525902271270752 118.0999984741211 81.07410430908203" xml:space="preserve" height="301.44329833984375" width="439.1101429538267" preserveAspectRatio="xMinYMin" enable-background="new 0 0 121.9 82.2" style="overflow: visible;"><g id="Layer_3" style=""></g><path class="st183" d="M34,74.1l11.9-20.6c-3.3-6-8.1-11-13.8-14.7c-6.3,5.8-14.4,9.6-23.4,10.5c0.6,0.1,1.2,0.2,1.8,0.2    c13,0,23.5,10.6,23.5,23.5C33.9,73.5,34,73.8,34,74.1z" style="fill: #0B5FD0;"></path><path class="st8" d="M10.4,49.6c-4.7,0-8.5-3.8-8.5-8.5s3.8-8.5,8.5-8.5c13,0,23.5-10.6,23.5-23.5c0-4.7,3.8-8.5,8.5-8.5    s8.5,3.8,8.5,8.5C50.9,31.4,32.8,49.6,10.4,49.6z" style="fill: #1099E7;"></path><path class="st183" d="M113.6,48.9c-9.6,0-18.4-3.4-25.4-9c-10.4,7.3-17.3,19.5-17.3,33.2c0,4.7,3.8,8.5,8.5,8.5s8.5-3.8,8.5-8.5    c0-13,10.6-23.5,23.5-23.5c1.3,0,2.5-0.3,3.6-0.8C114.6,48.9,114.1,48.9,113.6,48.9z" style="fill: #0B5FD0;"></path><path class="st8" d="M111.5,32.6c-13,0-23.5-10.6-23.5-23.5c0-0.7-0.1-1.3-0.2-1.9L75.7,28c6.8,12.8,20.3,21.6,35.8,21.6    c4.7,0,8.5-3.8,8.5-8.5S116.2,32.6,111.5,32.6z" style="fill: #1099E7;"></path><path class="st10" d="M42.4,81.6c-1.4,0-2.9-0.4-4.2-1.1c-4.1-2.3-5.5-7.5-3.1-11.6l37-64.1c2.3-4.1,7.5-5.5,11.6-3.1    c4.1,2.3,5.5,7.5,3.1,11.6l-37,64.1C48.2,80.1,45.4,81.6,42.4,81.6z" style="fill: #62D4F9;"></path></svg></svg>